<?xml version="1.0" standalone="no"?>
<!DOCTYPE svg PUBLIC "-//W3C//DTD SVG 20010904//EN"
 "http://www.w3.org/TR/2001/REC-SVG-20010904/DTD/svg10.dtd">
<svg version="1.0" xmlns="http://www.w3.org/2000/svg"
 width="500.000000pt" height="500.000000pt" viewBox="0 0 500.000000 500.000000"
 preserveAspectRatio="xMidYMid meet">

<g transform="translate(0.000000,500.000000) scale(0.100000,-0.100000)"
fill="#000000" stroke="none">
<path d="M2185 4974 c-196 -26 -376 -74 -650 -172 -93 -33 -262 -122 -388
-203 l-87 -56 -103 103 c-98 100 -104 104 -145 104 -51 0 -87 -30 -97 -81 -3
-19 -5 -148 -3 -286 l3 -253 28 -27 27 -28 253 -3 c138 -2 267 0 286 3 51 10
81 46 81 97 0 41 -4 47 -96 136 -52 52 -94 95 -92 96 16 13 199 121 258 153
88 49 235 108 375 151 216 68 390 92 665 92 285 0 458 -26 690 -101 123 -41
306 -115 339 -138 14 -10 49 -30 78 -45 29 -14 91 -51 138 -81 46 -30 88 -55
93 -55 43 0 503 -456 535 -530 6 -14 27 -50 47 -80 94 -143 184 -317 232 -445
114 -308 147 -495 148 -827 0 -363 -26 -498 -182 -920 -14 -37 -23 -79 -20
-93 7 -37 64 -69 110 -62 61 10 67 22 158 295 88 264 115 421 121 723 9 381
-28 587 -177 1004 -66 183 -177 375 -341 584 -294 377 -672 656 -1089 804
-225 80 -411 125 -605 147 -126 14 -470 11 -590 -6z m-1182 -643 c26 -25 47
-49 47 -53 0 -4 -31 -8 -70 -8 l-70 0 0 72 0 71 23 -19 c12 -10 43 -39 70 -63z"/>
<path d="M1408 3837 c-93 -29 -175 -76 -243 -142 -67 -65 -98 -114 -132 -205
-27 -72 -28 -83 -28 -260 0 -177 1 -189 28 -265 15 -44 39 -97 52 -117 14 -21
25 -41 25 -46 0 -8 -255 -95 -312 -107 -14 -3 -55 -24 -90 -47 -52 -36 -70
-56 -106 -118 -67 -119 -67 -116 -67 -513 l0 -359 33 -29 32 -29 359 0 360 0
3 -206 3 -206 33 -29 32 -29 1105 0 c764 0 1111 3 1128 11 48 22 52 40 55 257
l3 202 360 0 359 0 32 29 33 29 3 318 c2 197 -1 344 -8 388 -15 99 -80 218
-146 269 -52 40 -53 40 -276 112 -82 27 -148 52 -148 56 0 4 13 29 30 56 16
26 41 90 56 141 24 87 26 102 22 255 -5 175 -20 243 -74 335 -35 60 -128 150
-198 191 -77 46 -201 81 -286 81 -113 0 -253 -44 -326 -102 -53 -43 -140 -137
-160 -173 -10 -19 -22 -35 -27 -35 -5 0 -27 13 -50 29 -58 40 -133 76 -207
101 -73 25 -233 29 -315 9 -59 -14 -166 -65 -229 -108 -25 -17 -48 -31 -53
-31 -5 0 -17 17 -28 37 -26 49 -127 150 -190 191 -117 77 -306 102 -447 59z
m237 -182 c86 -14 205 -96 240 -165 44 -89 48 -111 24 -164 -28 -63 -49 -199
-49 -312 l0 -91 -42 -40 c-78 -71 -199 -111 -301 -99 -77 9 -168 58 -230 126
-74 79 -98 144 -105 277 -7 149 18 253 79 331 49 63 167 130 249 143 45 7 62
6 135 -6z m1932 -21 c136 -59 210 -150 234 -289 16 -96 7 -246 -21 -318 -46
-121 -187 -231 -313 -244 -103 -11 -224 32 -299 105 l-38 36 0 91 c0 112 -22
248 -49 311 -18 41 -20 53 -10 83 34 105 88 165 196 220 87 44 208 46 300 5z
m-967 -130 c105 -24 233 -124 282 -219 49 -94 58 -141 58 -296 0 -177 -17
-244 -83 -329 -59 -76 -165 -154 -236 -174 -73 -20 -192 -20 -262 0 -121 36
-261 173 -299 293 -28 89 -29 332 -1 412 41 119 98 193 202 261 100 66 209 83
339 52z m-694 -856 c14 -29 42 -75 61 -101 19 -27 32 -51 30 -54 -3 -2 -96
-36 -208 -74 -288 -99 -337 -130 -411 -259 -39 -68 -58 -143 -65 -262 l-6
-108 -299 0 -298 0 0 282 c0 403 -9 390 348 511 l230 79 69 -28 c62 -26 79
-29 188 -29 132 0 230 23 297 71 18 12 34 23 35 24 2 0 15 -24 29 -52z m1334
-20 c54 -19 85 -23 190 -23 115 0 130 2 193 28 l69 29 230 -79 c194 -66 237
-84 273 -116 73 -63 76 -81 73 -397 l-3 -275 -296 -3 -296 -2 -6 107 c-7 120
-26 195 -65 263 -74 129 -123 160 -411 259 -112 38 -206 72 -209 75 -3 4 4 16
15 29 12 12 40 57 63 99 l41 77 37 -24 c20 -13 66 -34 102 -47z m-999 -302
c82 -37 225 -52 347 -37 56 7 119 22 149 36 l52 23 83 -24 c235 -71 456 -150
493 -176 46 -33 91 -95 105 -147 6 -21 10 -174 10 -358 l0 -323 -990 0 -990 0
0 323 c0 184 4 337 10 358 14 51 58 113 105 148 37 27 183 79 490 174 44 14
81 26 81 26 1 1 26 -10 55 -23z"/>
<path d="M424 3843 c-69 -13 -95 -122 -41 -169 62 -53 157 -10 157 71 0 20 -5
45 -10 56 -10 18 -61 50 -77 48 -4 -1 -18 -4 -29 -6z"/>
<path d="M252 3542 c-29 -14 -38 -29 -64 -102 -143 -404 -178 -593 -178 -952
0 -279 33 -491 114 -738 114 -349 197 -509 402 -774 235 -304 527 -545 865
-713 183 -92 472 -185 694 -224 151 -27 519 -37 676 -20 380 43 768 177 1076
372 l104 65 103 -103 c98 -98 105 -103 145 -103 50 0 86 31 96 81 3 19 5 148
3 286 l-3 253 -28 27 -27 28 -253 3 c-138 2 -267 0 -286 -3 -51 -10 -81 -46
-81 -97 0 -41 4 -47 95 -136 l95 -92 -70 -45 c-296 -189 -615 -306 -945 -344
-216 -26 -578 -9 -775 34 -158 35 -476 150 -539 194 -14 10 -49 30 -78 45 -29
14 -91 51 -138 81 -46 30 -88 55 -93 55 -13 0 -135 103 -243 208 -129 123
-277 288 -294 327 -7 17 -26 48 -42 70 -34 47 -137 224 -181 310 -76 152 -160
425 -187 610 -17 119 -20 553 -5 672 22 162 68 334 144 531 52 136 47 182 -22
202 -47 13 -41 13 -80 -8z m3838 -2884 l0 -71 -22 19 c-47 39 -118 109 -118
116 0 4 32 8 70 8 l70 0 0 -72z"/>
<path d="M4498 1325 c-58 -33 -66 -108 -18 -157 27 -27 36 -30 72 -25 53 7 79
34 85 89 4 37 1 49 -18 72 -29 33 -83 42 -121 21z"/>
</g>
</svg>
