<?xml version="1.0" standalone="no"?>
<!DOCTYPE svg PUBLIC "-//W3C//DTD SVG 20010904//EN"
 "http://www.w3.org/TR/2001/REC-SVG-20010904/DTD/svg10.dtd">
<svg version="1.0" xmlns="http://www.w3.org/2000/svg"
 width="500.000000pt" height="500.000000pt" viewBox="0 0 500.000000 500.000000"
 preserveAspectRatio="xMidYMid meet">

<g transform="translate(0.000000,500.000000) scale(0.100000,-0.100000)"
fill="#000000" stroke="none">
<path d="M743 4758 c-15 -7 -37 -46 -67 -115 -26 -57 -46 -109 -46 -116 0 -6
-16 -48 -36 -92 -19 -44 -71 -161 -114 -260 -43 -99 -110 -252 -149 -340 l-70
-160 -63 -6 c-77 -7 -92 -13 -107 -45 -15 -33 -15 -344 0 -377 14 -32 49 -47
104 -47 41 0 44 -2 50 -32 22 -104 140 -259 246 -325 l59 -36 0 -973 0 -974
-45 0 c-94 0 -115 -29 -115 -155 l0 -85 -132 0 c-73 0 -138 -4 -144 -8 -27
-18 -34 -56 -34 -181 0 -140 8 -172 47 -190 34 -16 4712 -16 4746 0 39 18 47
50 47 190 0 125 -7 163 -34 181 -6 4 -71 8 -143 8 l-133 0 0 85 c0 126 -21
155 -115 155 l-45 0 0 974 0 973 59 36 c106 66 224 221 246 325 6 30 9 32 50
32 55 0 90 15 104 47 15 33 15 344 0 377 -15 32 -30 38 -107 45 l-63 6 -70
160 c-39 88 -106 241 -149 340 -43 99 -95 216 -114 260 -20 44 -36 86 -36 92
0 7 -20 59 -45 116 -34 77 -52 107 -71 116 -34 15 -3479 15 -3511 -1z m3483
-278 c109 -246 142 -325 150 -355 4 -16 21 -59 37 -95 16 -36 58 -130 93 -210
l63 -145 -1035 -3 c-569 -1 -1499 -1 -2068 0 l-1034 3 44 105 c25 58 66 150
91 205 25 55 52 120 59 146 8 25 35 92 60 150 108 242 127 285 135 307 l9 22
1670 -2 1671 -3 55 -125z m544 -1040 l0 -80 -2270 0 -2270 0 0 80 0 80 2270 0
2270 0 0 -80z m-3455 -262 c-34 -113 -193 -245 -335 -277 -113 -26 -265 -6
-363 47 -92 50 -189 155 -212 230 l-6 22 461 0 461 0 -6 -22z m1090 0 c-22
-75 -126 -191 -205 -230 -195 -97 -437 -69 -588 67 -50 45 -104 120 -117 163
l-6 22 461 0 461 0 -6 -22z m1100 0 c-13 -42 -67 -118 -114 -161 -154 -138
-387 -166 -588 -71 -79 38 -186 156 -208 232 l-6 22 461 0 461 0 -6 -22z
m1090 0 c-29 -97 -161 -220 -281 -262 -63 -23 -214 -32 -282 -17 -75 16 -174
66 -230 116 -50 45 -104 120 -117 163 l-6 22 461 0 461 0 -6 -22z m-3090 -273
c58 -58 180 -125 275 -151 80 -22 251 -24 330 -5 143 35 300 140 372 248 14
22 15 22 67 -38 134 -152 286 -221 491 -223 127 -1 187 13 305 69 100 48 169
103 211 169 l27 43 81 -82 c87 -88 185 -147 301 -181 63 -19 254 -26 308 -11
l27 7 0 -945 0 -945 -1215 0 -1215 0 0 838 c0 460 -4 842 -8 848 -21 32 -52
34 -531 34 -330 0 -488 -3 -504 -11 -14 -6 -30 -22 -36 -36 -8 -17 -11 -265
-11 -848 l0 -825 -40 0 -40 0 0 945 0 945 28 -7 c15 -4 79 -7 142 -7 129 1
191 17 314 82 74 39 175 125 204 174 l17 30 25 -33 c14 -19 48 -56 75 -84z
m215 -1265 l0 -780 -390 0 -390 0 0 780 0 780 390 0 390 0 0 -780z m2730 -980
l0 -40 -1950 0 -1950 0 0 40 0 40 1950 0 1950 0 0 -40z m320 -230 l0 -40
-2270 0 -2270 0 0 40 0 40 2270 0 2270 0 0 -40z"/>
<path d="M2074 2568 c-12 -5 -27 -21 -33 -34 -16 -35 -16 -1203 0 -1237 6 -14
22 -30 36 -36 34 -16 2062 -16 2096 0 14 6 30 22 36 36 16 34 16 1202 0 1236
-6 14 -22 30 -36 36 -33 15 -2068 14 -2099 -1z m1986 -653 l0 -505 -935 0
-935 0 0 505 0 505 935 0 935 0 0 -505z"/>
<path d="M1514 1862 c-28 -19 -34 -56 -34 -224 0 -161 2 -176 20 -196 27 -28
62 -37 92 -21 45 24 47 35 48 217 0 211 -7 232 -80 232 -19 0 -40 -4 -46 -8z"/>
</g>
</svg>
