<?xml version="1.0" standalone="no"?>
<!DOCTYPE svg PUBLIC "-//W3C//DTD SVG 20010904//EN"
 "http://www.w3.org/TR/2001/REC-SVG-20010904/DTD/svg10.dtd">
<svg version="1.0" xmlns="http://www.w3.org/2000/svg"
 width="500.000000pt" height="500.000000pt" viewBox="0 0 500.000000 500.000000"
 preserveAspectRatio="xMidYMid meet">

<g transform="translate(0.000000,500.000000) scale(0.100000,-0.100000)"
fill="#000000" stroke="none">
<path d="M675 4990 c-180 -24 -393 -144 -497 -281 -58 -76 -130 -219 -155
-309 -17 -61 -18 -139 -18 -1300 0 -1376 -4 -1286 69 -1445 103 -223 281 -372
526 -442 62 -17 149 -18 1900 -18 1751 0 1838 1 1900 18 254 72 441 235 539
471 28 68 61 215 61 275 0 87 -68 179 -149 201 -123 33 -241 -70 -241 -211 0
-81 -64 -207 -138 -270 -23 -20 -67 -49 -99 -65 l-58 -29 -1815 0 -1815 0 -58
29 c-76 39 -132 88 -172 150 -70 110 -66 21 -63 1352 l3 1199 30 59 c56 110
158 198 265 226 64 17 3558 17 3622 0 105 -28 208 -117 263 -226 l30 -59 5
-705 c6 -784 1 -734 74 -798 60 -53 136 -62 207 -26 40 20 87 79 99 124 8 28
10 255 7 738 -4 784 1 737 -82 907 -86 176 -184 274 -360 360 -179 87 18 79
-2015 81 -993 1 -1832 -2 -1865 -6z"/>
<path d="M2115 3951 c-56 -10 -120 -45 -176 -98 -37 -35 -53 -61 -76 -121
l-28 -77 0 -560 0 -560 28 -76 c34 -93 82 -142 183 -187 162 -73 273 -49 554
122 89 54 246 146 610 356 160 93 242 251 211 407 -25 125 -91 213 -216 286
-38 23 -81 49 -95 60 -13 10 -56 34 -95 52 -38 18 -125 66 -192 107 -329 198
-472 278 -513 287 -50 12 -134 12 -195 2z m175 -420 c14 -10 115 -70 225 -135
110 -64 252 -148 315 -186 63 -38 134 -76 158 -85 23 -9 42 -20 42 -23 0 -4
-69 -47 -153 -95 -83 -49 -208 -123 -277 -164 -69 -42 -161 -95 -205 -118 -44
-22 -99 -53 -122 -68 -24 -15 -45 -27 -48 -27 -3 0 -5 210 -5 466 l0 465 23
-6 c12 -4 33 -15 47 -24z"/>
<path d="M1220 765 c-75 -21 -150 -69 -191 -121 l-34 -43 -405 -1 c-251 0
-419 -4 -443 -11 -43 -11 -101 -59 -122 -98 -36 -72 -26 -156 27 -217 58 -66
44 -64 507 -64 l420 0 41 -57 c72 -101 170 -148 305 -147 123 2 226 56 306
161 56 74 71 122 71 223 1 117 -25 182 -102 259 -108 109 -250 152 -380 116z"/>
<path d="M2236 585 c-131 -46 -175 -207 -84 -311 61 -69 -48 -64 1398 -64
1446 0 1337 -5 1398 64 53 61 63 145 27 217 -21 39 -79 87 -122 98 -26 7 -451
11 -1308 11 -1052 -1 -1277 -3 -1309 -15z"/>
</g>
</svg>
